HIERARCHY
ROOT Hips
{
	OFFSET	0.00	0.00	0.00
	CHANNELS 6 Xposition Yposition Zposition Zrotation Xrotation Yrotation
	JOINT LeftUpLeg
	{
		OFFSET	 0.126116	-0.065224	 0.014019
		CHANNELS 3 Zrotation Xrotation Yrotation
		JOINT LeftLeg
		{
			OFFSET	 0.000000	 0.569914	 0.000000
			CHANNELS 3 Zrotation Xrotation Yrotation
			JOINT LeftFoot
			{
				OFFSET	 0.000000	 0.544423	 0.000000
				CHANNELS 3 Zrotation Xrotation Yrotation
				JOINT LeftToeBase
				{
					OFFSET	 0.000000	 0.207117	 0.000000
					CHANNELS 3 Zrotation Xrotation Yrotation
					End Site
					{
						OFFSET	 0.000000	 0.207117	 0.000000
					}
				}
			}
		}
	}
	JOINT RightUpLeg
	{
		OFFSET	-0.124023	-0.065224	 0.008373
		CHANNELS 3 Zrotation Xrotation Yrotation
		JOINT RightLeg
		{
			OFFSET	 0.000000	 0.570047	 0.000000
			CHANNELS 3 Zrotation Xrotation Yrotation
			JOINT RightFoot
			{
				OFFSET	 0.000000	 0.544354	 0.000000
				CHANNELS 3 Zrotation Xrotation Yrotation
				JOINT RightToeBase
				{
					OFFSET	 0.000000	 0.207540	 0.000000
					CHANNELS 3 Zrotation Xrotation Yrotation
					End Site
					{
						OFFSET	 0.000000	 0.207540	 0.000000
					}
				}
			}
		}
	}
	JOINT Spine
	{
		OFFSET	 0.000184	 0.117403	 0.007763
		CHANNELS 3 Zrotation Xrotation Yrotation
		JOINT Spine1
		{
			OFFSET	 0.000000	 0.137269	 0.000000
			CHANNELS 3 Zrotation Xrotation Yrotation
			JOINT Spine2
			{
				OFFSET	 0.000000	 0.156879	 0.000000
				CHANNELS 3 Zrotation Xrotation Yrotation
				JOINT LeftShoulder
				{
					OFFSET	 0.080501	 0.160143	 0.002496
					CHANNELS 3 Zrotation Xrotation Yrotation
					JOINT LeftArm
					{
						OFFSET	 0.000000	 0.164363	 0.000000
						CHANNELS 3 Zrotation Xrotation Yrotation
						JOINT LeftForeArm
						{
							OFFSET	 0.000000	 0.364576	 0.000000
							CHANNELS 3 Zrotation Xrotation Yrotation
							JOINT LeftHand
							{
								OFFSET	 0.000000	 0.360812	 0.000000
								CHANNELS 3 Zrotation Xrotation Yrotation
								JOINT LeftHandIndex1
								{
									OFFSET	 0.000000	 0.086006	 0.000000
									CHANNELS 3 Zrotation Xrotation Yrotation
									JOINT LeftHandIndex2
									{
										OFFSET	 0.000000	 0.047237	 0.000000
										CHANNELS 3 Zrotation Xrotation Yrotation
										JOINT LeftHandIndex3
										{
											OFFSET	-0.004284	 0.038165	 0.000551
											CHANNELS 3 Zrotation Xrotation Yrotation
											End Site
											{
												OFFSET	-0.004284	 0.038165	 0.000551
											}
										}
									}
								}
							}
						}
					}
				}
				JOINT Neck
				{
					OFFSET	 0.000000	 0.176489	 0.000000
					CHANNELS 3 Zrotation Xrotation Yrotation
					JOINT Head
					{
						OFFSET	 0.000000	 0.077941	 0.001747
						CHANNELS 3 Zrotation Xrotation Yrotation
						End Site
						{
							OFFSET	 0.000000	 0.077941	 0.001747
						}
					}
				}
				JOINT RightShoulder
				{
					OFFSET	-0.080363	 0.159706	-0.000306
					CHANNELS 3 Zrotation Xrotation Yrotation
					JOINT RightArm
					{
						OFFSET	 0.000000	 0.164196	 0.000000
						CHANNELS 3 Zrotation Xrotation Yrotation
						JOINT RightForeArm
						{
							OFFSET	 0.000000	 0.365611	 0.000000
							CHANNELS 3 Zrotation Xrotation Yrotation
							JOINT RightHand
							{
								OFFSET	 0.000000	 0.360648	 0.000000
								CHANNELS 3 Zrotation Xrotation Yrotation
								JOINT RightHandIndex1
								{
									OFFSET	 0.000000	 0.069977	 0.000000
									CHANNELS 3 Zrotation Xrotation Yrotation
									JOINT RightHandIndex2
									{
										OFFSET	 0.000000	 0.052305	 0.000000
										CHANNELS 3 Zrotation Xrotation Yrotation
										JOINT RightHandIndex3
										{
											OFFSET	 0.009002	 0.042196	 0.000782
											CHANNELS 3 Zrotation Xrotation Yrotation
											End Site
											{
												OFFSET	 0.009002	 0.042196	 0.000782
											}
										}
									}
								}
							}
						}
					}
				}
			}
		}
	}
}
MOTION
Frames:    12
Frame Time: 0.03333334
 0.000781	 1.271125	 0.063374	 0.210873	-0.003763	 179.996100	 178.246400	 1.680843	 13.805460	 2.751318	-12.766600	 0.050404	-2.703600	 72.061350	 4.245199	 1.292262	 28.425850	-2.713146	-178.007900	 1.696636	-13.780730	-2.559546	-12.255100	-0.008584	 2.825680	 71.597320	-4.383866	-1.288183	 28.361890	 2.710176	-0.100672	 2.772138	-5.221250	 1.167271	 3.526935	-2.703814	-1.094061	-4.485674	 7.872959	-101.478000	 1.740667	 90.353380	-1.907744	 62.562850	 4.699283	 7.109404	 14.519550	 0.548248	 3.622232	-17.157600	-18.355980	-6.580301	 5.266122	 0.000000	 0.000000	 0.000000	 0.000000	 0.000000	 0.000000	 0.000000	 0.089846	-3.783161	 0.005928	-0.019000	 1.120960	 1.942035	 101.796200	-0.213330	-89.955440	-3.388541	 65.495000	-5.253215	-7.135396	 10.789560	 1.956183	-17.871190	-8.323244	-16.388260	 15.208500	 5.323790	 0.000000	 0.000000	 0.000000	 0.000000	 0.000000	 0.000000	 0.000000
 0.000742	 1.285769	 0.062408	 0.218201	-0.005190	 179.996200	 178.264300	 1.675353	 13.744580	 2.746346	-12.744280	 0.049310	-2.317123	 69.513250	 3.909164	 1.292262	 28.425850	-2.713146	-178.026000	 1.661011	-13.719090	-2.540315	-12.165840	-0.004517	 2.420670	 69.015210	-4.037101	-1.288183	 28.361890	 2.710176	-0.070932	 2.447002	-5.014007	 1.088883	 4.650536	-2.632490	-0.981235	-5.933770	 7.577997	-101.478000	 1.740669	 90.353380	-6.794595	 56.487340	 8.948172	 13.016780	 25.235440	-1.470674	 0.284136	-29.245130	-18.135020	-6.580301	 5.266122	 0.000000	 0.000000	 0.000000	 0.000000	 0.000000	 0.000000	 0.000000	 0.089846	-3.783161	 0.005928	-0.015620	 0.961504	 1.861352	 101.796200	-0.213319	-89.955440	 4.664656	 54.063470	-12.066580	-23.189070	 31.137160	 7.417148	-18.602990	-23.490160	-23.636500	 15.208500	 5.323790	 0.000000	 0.000000	 0.000000	 0.000000	 0.000000	 0.000000	 0.000000
 0.000742	 1.287511	 0.062294	 0.217314	-0.005717	 179.996700	 178.266500	 1.672072	 13.736010	 2.744185	-12.734590	 0.048834	-2.280561	 69.206990	 3.879913	 1.292262	 28.425850	-2.713146	-178.028900	 1.659054	-13.710570	-2.538951	-12.159510	-0.004225	 2.380452	 68.710770	-4.003927	-1.288183	 28.361890	 2.710176	-0.068211	 2.409246	-4.965141	 1.073848	 4.780424	-2.611214	-0.963213	-6.102725	 7.506052	-101.478000	 1.740688	 90.353390	-7.190670	 55.890020	 9.278806	 13.606510	 26.210010	-1.726614	-0.207802	-31.034720	-18.154250	-6.580301	 5.266122	 0.000000	 0.000000	 0.000000	 0.000000	 0.000000	 0.000000	 0.000000	 0.089846	-3.783161	 0.005928	-0.015184	 0.944217	 1.842616	 101.796200	-0.213324	-89.955440	 5.009665	 52.673080	-12.243580	-25.539360	 33.482490	 8.591320	-19.238440	-25.658990	-25.000900	 15.208500	 5.323790	 0.000000	 0.000000	 0.000000	 0.000000	 0.000000	 0.000000	 0.000000
 0.000744	 1.289266	 0.062179	 0.216136	-0.006165	 179.996900	 178.268700	 1.668398	 13.726870	 2.741851	-12.724130	 0.048322	-2.244872	 68.897850	 3.851750	 1.292262	 28.425850	-2.713146	-178.032100	 1.657164	-13.701840	-2.537625	-12.153350	-0.003948	 2.342065	 68.403930	-3.972822	-1.288183	 28.361890	 2.710176	-0.065575	 2.371073	-4.910491	 1.057450	 4.911186	-2.586737	-0.944145	-6.272144	 7.425593	-101.478000	 1.740651	 90.353370	-7.568023	 55.299780	 9.590618	 14.189790	 27.155740	-1.988584	-0.725714	-32.903920	-18.188380	-6.580301	 5.266122	 0.000000	 0.000000	 0.000000	 0.000000	 0.000000	 0.000000	 0.000000	 0.089846	-3.783161	 0.005928	-0.014743	 0.927218	 1.821841	 101.796200	-0.213318	-89.955450	 5.258945	 51.248470	-12.308120	-28.097680	 35.851230	 9.956318	-20.004410	-27.906690	-26.533270	 15.208500	 5.323790	 0.000000	 0.000000	 0.000000	 0.000000	 0.000000	 0.000000	 0.000000
 0.000746	 1.291028	 0.062063	 0.214648	-0.006692	 179.997200	 178.270800	 1.664398	 13.717410	 2.739340	-12.712870	 0.047764	-2.210754	 68.587110	 3.825434	 1.292262	 28.425850	-2.713146	-178.035400	 1.655687	-13.692820	-2.536467	-12.147970	-0.003704	 2.304848	 68.096200	-3.942951	-1.288183	 28.361890	 2.710176	-0.063099	 2.332926	-4.850385	 1.040053	 5.041914	-2.559304	-0.924259	-6.441492	 7.336834	-101.478000	 1.740669	 90.353380	-7.926820	 54.717070	 9.884137	 14.765350	 28.071550	-2.255294	-1.264949	-34.834380	-18.238150	-6.580301	 5.266122	 0.000000	 0.000000	 0.000000	 0.000000	 0.000000	 0.000000	 0.000000	 0.089846	-3.783161	 0.005928	-0.014297	 0.910545	 1.799010	 101.796200	-0.213320	-89.955450	 5.410866	 49.795330	-12.255480	-30.889470	 38.225290	 11.540980	-20.904020	-30.207130	-28.246280	 15.208500	 5.323790	 0.000000	 0.000000	 0.000000	 0.000000	 0.000000	 0.000000	 0.000000
 0.000750	 1.293309	 0.061913	 0.212234	-0.007219	 179.997600	 178.273200	 1.658730	 13.704640	 2.735890	-12.697390	 0.047010	-2.168591	 68.184370	 3.793639	 1.292262	 28.425850	-2.713146	-178.040000	 1.654157	-13.680570	-2.535203	-12.142110	-0.003436	 2.259639	 67.698410	-3.907446	-1.288183	 28.361890	 2.710176	-0.060102	 2.284684	-4.764911	 1.015889	 5.207613	-2.519525	-0.897376	-6.657431	 7.210081	-101.478000	 1.740669	 90.353380	-8.365383	 53.973760	 10.238540	 15.498770	 29.212270	-2.606916	-1.984469	-37.386720	-18.323910	-6.580301	 5.266122	 0.000000	 0.000000	 0.000000	 0.000000	 0.000000	 0.000000	 0.000000	 0.089846	-3.783161	 0.005928	-0.013715	 0.889580	 1.766588	 101.796200	-0.213318	-89.955440	 5.458451	 47.884040	-12.001910	-34.889610	 41.269130	 13.962690	-22.263650	-33.212280	-30.743180	 15.208500	 5.323790	 0.000000	 0.000000	 0.000000	 0.000000	 0.000000	 0.000000	 0.000000
 0.000755	 1.295080	 0.061798	 0.210020	-0.007597	 179.997900	 178.275000	 1.654013	 13.694580	 2.733067	-12.684710	 0.046386	-2.137084	 67.871050	 3.770369	 1.292262	 28.425850	-2.713146	-178.043900	 1.653025	-13.670820	-2.534271	-12.137770	-0.003239	 2.225710	 67.389400	-3.881189	-1.288183	 28.361890	 2.710176	-0.057976	 2.247810	-4.692471	 0.996047	 5.335207	-2.485240	-0.875689	-6.823784	 7.102363	-101.478000	 1.740662	 90.353390	-8.687319	 53.402790	 10.494660	 16.060420	 30.066560	-2.884631	-2.551036	-39.385660	-18.402660	-6.580301	 5.266122	 0.000000	 0.000000	 0.000000	 0.000000	 0.000000	 0.000000	 0.000000	 0.089846	-3.783161	 0.005928	-0.013263	 0.873784	 1.739142	 101.796200	-0.213317	-89.955440	 5.376567	 46.379140	-11.650920	-38.346680	 43.586960	 16.181560	-23.468270	-35.533600	-32.915180	 15.208500	 5.323790	 0.000000	 0.000000	 0.000000	 0.000000	 0.000000	 0.000000	 0.000000
 0.000760	 1.296859	 0.061681	 0.207435	-0.008046	 179.998300	 178.276700	 1.649031	 13.683910	 2.730049	-12.671180	 0.045718	-2.107602	 67.555910	 3.749497	 1.292262	 28.425850	-2.713146	-178.047900	 1.652385	-13.660670	-2.533520	-12.134300	-0.003084	 2.193030	 67.079480	-3.856264	-1.288183	 28.361890	 2.710176	-0.055998	 2.210710	-4.614452	 0.974879	 5.462495	-2.447846	-0.853119	-6.989189	 6.986097	-101.478000	 1.740671	 90.353380	-8.995194	 52.833150	 10.736370	 16.618750	 30.899160	-3.167881	-3.115849	-41.379160	-18.486100	-6.580301	 5.266122	 0.000000	 0.000000	 0.000000	 0.000000	 0.000000	 0.000000	 0.000000	 0.089846	-3.783161	 0.005928	-0.012808	 0.858370	 1.709662	 101.796200	-0.213309	-89.955440	 5.144293	 44.844130	-11.114810	-42.118740	 45.886590	 18.681310	-24.787160	-37.856300	-35.248430	 15.208500	 5.323790	 0.000000	 0.000000	 0.000000	 0.000000	 0.000000	 0.000000	 0.000000
 0.000766	 1.298784	 0.061554	 0.204253	-0.008569	 179.998400	 178.278300	 1.643319	 13.671980	 2.726615	-12.655760	 0.044968	-2.076195	 67.214190	 3.727548	 1.292262	 28.425850	-2.713146	-178.052500	 1.652186	-13.649570	-2.532920	-12.131500	-0.002958	 2.159606	 66.744150	-3.831389	-1.288183	 28.361890	 2.710176	-0.054136	 2.171646	-4.523808	 0.950948	 5.596851	-2.403695	-0.828018	-7.165221	 6.851031	-101.478000	 1.740672	 90.353390	-9.312895	 52.218800	 10.981760	 17.217740	 31.774220	-3.479485	-3.706162	-43.486770	-18.569560	-6.580301	 5.266122	 0.000000	 0.000000	 0.000000	 0.000000	 0.000000	 0.000000	 0.000000	 0.089846	-3.783161	 0.005928	-0.012315	 0.842198	 1.675555	 101.796200	-0.213326	-89.955440	 4.878936	 43.208630	-10.458530	-46.779170	 48.135360	 22.006160	-26.334840	-40.167710	-38.151950	 15.208500	 5.323790	 0.000000	 0.000000	 0.000000	 0.000000	 0.000000	 0.000000	 0.000000
 0.000772	 1.300379	 0.061450	 0.201333	-0.008941	 179.998700	 178.279500	 1.638312	 13.661890	 2.723655	-12.642460	 0.044325	-2.051601	 66.930760	 3.711020	 1.292262	 28.425850	-2.713146	-178.056400	 1.652139	-13.640080	-2.532505	-12.129560	-0.002878	 2.132599	 66.466560	-3.811516	-1.288183	 28.361890	 2.710176	-0.052730	 2.139434	-4.444230	 0.930150	 5.707536	-2.364620	-0.806627	-7.309499	 6.732006	-101.478000	 1.740682	 90.353390	-9.564454	 51.710830	 11.172530	 17.710250	 32.479400	-3.741389	-4.161714	-45.160920	-18.620380	-6.580301	 5.266122	 0.000000	 0.000000	 0.000000	 0.000000	 0.000000	 0.000000	 0.000000	 0.089846	-3.783161	 0.005928	-0.011908	 0.829176	 1.645518	 101.796200	-0.213318	-89.955450	 4.456180	 41.827270	-9.674064	-50.898380	 49.972380	 24.975390	-27.642930	-42.067460	-40.591240	 15.208500	 5.323790	 0.000000	 0.000000	 0.000000	 0.000000	 0.000000	 0.000000	 0.000000
 0.000780	 1.301189	 0.061397	 0.198168	-0.009242	 179.999000	 178.280100	 1.632703	 13.656630	 2.720582	-12.628680	 0.043649	-2.038813	 66.783900	 3.703014	 1.292262	 28.425850	-2.713146	-178.060000	 1.652114	-13.635230	-2.532264	-12.128460	-0.002826	 2.118914	 66.326170	-3.801609	-1.288183	 28.361890	 2.710176	-0.051579	 2.108845	-4.361273	 0.908999	 5.814052	-2.323472	-0.785082	-7.449899	 6.607773	-101.478000	 1.740673	 90.353380	-9.739521	 51.398650	 11.303850	 17.964490	 32.838190	-3.878584	-4.460448	-46.567340	-18.618460	-6.580301	 5.266122	 0.000000	 0.000000	 0.000000	 0.000000	 0.000000	 0.000000	 0.000000	 0.089846	-3.783161	 0.005928	-0.011505	 0.816652	 1.614268	 101.796200	-0.213304	-89.955440	 3.930298	 40.575900	-8.762832	-55.064320	 51.512370	 28.075650	-28.974410	-43.728450	-43.113310	 15.208500	 5.323790	 0.000000	 0.000000	 0.000000	 0.000000	 0.000000	 0.000000	 0.000000
 0.000789	 1.301197	 0.061398	 0.194727	-0.009469	 179.999300	 178.280100	 1.626693	 13.656340	 2.717424	-12.614490	 0.042961	-2.038271	 66.776560	 3.703867	 1.292262	 28.425850	-2.713146	-178.063200	 1.652103	-13.635600	-2.532151	-12.127930	-0.002797	 2.116966	 66.325820	-3.799758	-1.288183	 28.361890	 2.710176	-0.050506	 2.077672	-4.273416	 0.886644	 5.921779	-2.279586	-0.762739	-7.590471	 6.475888	-101.478000	 1.740650	 90.353360	-9.844788	 51.278160	 11.381230	 17.978000	 32.856980	-3.885887	-4.582108	-47.702450	-18.540820	-6.580301	 5.266122	 0.000000	 0.000000	 0.000000	 0.000000	 0.000000	 0.000000	 0.000000	 0.089846	-3.783161	 0.005928	-0.011101	 0.804417	 1.581257	 101.796200	-0.213303	-89.955440	 3.255209	 39.415850	-7.672400	-59.285230	 52.832100	 31.277610	-30.286230	-45.202740	-45.680680	 15.208500	 5.323790	 0.000000	 0.000000	 0.000000	 0.000000	 0.000000	 0.000000	 0.000000
